<svg><defs><linearGradient id="prefix__a"><stop stop-color="#ee2a7b" offset="0"/><stop stop-color="#ff7db8" offset="1"/></linearGradient></defs><g xmlns="http://www.w3.org/2000/svg" fill-rule="evenodd" transform="matrix(.51518 0 0 .51518 -2.498 -2.251)" fill="url(#prefix__a)"><path d="M54.353 49.29a875.9 875.9 0 019.894-10.023c3.64-3.64 7.799 2.6 15.598-5.2 5.857-5.856 15.858-18.977 16.118-19.237.26-.26-.13-.65-.39-.39S80.365 29.388 79.845 29.908c-.52.52-1.3.26-1.69-.13l-.26-.26c-.385-.385-.65-1.17-.13-1.69S92.973 11.32 93.233 11.06c.26-.26-.26-.78-.52-.52S76.465 26.008 75.945 26.528c-.52.52-1.274.286-1.69-.13l-.26-.26c-.373-.373-.65-1.17-.13-1.69S89.595 7.942 89.855 7.682c.26-.26-.26-.78-.52-.52S73.086 22.109 72.566 22.629c-.52.52-1.287.272-1.69-.13l-.26-.26c-.39-.39-.65-1.17-.13-1.69S85.694 5.081 85.954 4.821c.26-.26-.19-.59-.39-.39-.199.2-11.438 8.32-19.237 16.118-7.8 7.799-1.56 11.958-5.2 15.598l-.015.015a874.549 874.549 0 01-10.12 9.988 535.063 535.063 0 003.361 3.14zm-5.243 5.457C24.145 81.021 19.99 89.762 15.502 94.251c-1.507 1.507-4.486 1.177-8.447-.912-2.09-3.96-2.42-6.94-.912-8.447 4.496-4.495 13.257-8.656 39.625-33.723a534.991 534.991 0 013.342 3.578z"/><path d="M41.163 38.167C78.12 75 88.97 79.737 94.153 84.92c1.508 1.507 1.178 4.486-.91 8.447-3.962 2.089-6.94 2.419-8.448.912-4.846-4.847-9.303-14.65-39.981-46.124-3.581-2.357-8.367 5.226-15.78-2.187C21.235 38.17 1.064 12.87 5.472 8.462c2.287-2.287 3.575-2.412 16.02 10.033 7.55 7.55 14.533 14.533 19.67 19.672z"/></g><path d="M72.868 13.029a6.546 6.546 0 00-1.64.287 6.031 6.031 0 00-2.962 2.244c-.633.95-.892 2.07-.978 3.193-.058.862.029 1.754.431 2.53.432.835 1.18 1.554 1.812 2.244.576.604 1.151 1.208 1.784 1.755.575.546 1.237.978 1.812 1.553.834.834 1.15 2.732.546 3.768-.719 1.15-2.416 1.323-3.538.949-.575-.201-1.092-.633-1.581-.978-.288-.201-.633-.288-.835.058-.115.172-.172.373-.23.546-.201.72-.46 1.38-.489 2.157-.028.892 1.669 1.15 2.301 1.295 2.82.661 6.213.143 7.68-2.647a6.72 6.72 0 00.604-1.812c.029-.23.058-.431.058-.661.115-1.841-.633-3.394-1.755-4.775-1.208-1.495-2.732-2.53-4.142-3.825-.863-.806-1.18-2.071-.92-3.222.259-1.236 1.668-1.553 2.732-1.236.317.086.576.23.863.402.173.086.345.202.575.202.403.028.46-.288.547-.604.201-.72.546-1.295.69-1.985.144-.777-.489-.92-1.122-1.122-.747-.201-1.466-.345-2.243-.316zm16.28 13.202c0 1.294-.03 3.854-.058 3.854v3.912c0 .172-.029.46.058.633.086.2.345.143.517.115.835-.087 1.669.028 2.503 0 .92-.03.633-1.439.604-2.014-.115-1.265.029-10.9.029-14.352 0-1.554-.058-4.746-.144-4.89-.144-.259-.518-.316-.806-.345-.632-.115-.949.057-1.898.057s-1.007.288-1.007 1.295v.863c-.028.69.087 5.522.087 6.299 0 .373-.03.402-.403.402-.95-.029-2.272.087-3.25 0-1.41-.115-1.093 0-1.18-1.294v-.173c0-1.84.23-6.615.144-6.903-.144-.431-.316-.517-.69-.489-.863.058-1.755-.086-2.617-.028-.288.028-.374.115-.46.402-.03.144-.058.288-.058.432 0 .891.057 2.1.086 2.991l-.086 17.056c0 .748.661.662 2.128.662 1.352 0 1.697.316 1.697-1.294 0-1.295-.086-2.934-.057-4.229.029-1.006 0-1.984 0-2.99.029-.375.115-.49.46-.49 1.266-.029 2.646 0 3.912 0 .402 0 .489.058.489.518zm9.204 8.284c.086.028.345.028.604.028.575 0 .748-2.07.805-2.502.029-.345.115-.374.403-.432 1.438-.172 2.157-.057 3.595-.028.317 0 .49.144.575.402l.202.662c.172.489.316 1.093.489 1.582.115.345.143.316.489.316.46 0 2.128 0 2.617-.028.662 0 .201-1.352.115-1.582-.259-.806-.316-1.64-.575-2.445-.115-.345-3.394-15.906-3.538-16.769-.201-.518-.029-.546-.489-.546-.978 0-2.013.057-3.02 0-.403 0-.374.115-.431.546-.058.403-1.093 4.976-1.496 6.874-.518 2.388-.978 4.689-1.553 7.047-.202.834-1.582 6.846-1.41 6.875.087.057.23.028.345.028.72 0 1.381 0 2.273-.028zm3.768-6.53h-.604c-.806 0-.834 0-.633-.834.144-.633.92-4.055 1.093-4.89.029-.057.086-.114.115-.114.057 0 .115.057.144.086.115.345.23 1.208.345 1.553.259 1.093.431 2.013.69 3.193.259 1.035.144 1.035-.374 1.035-.259 0-.517-.029-.776-.029zm17.861-1.754c0 1.294-.028 3.854-.057 3.854v3.912c0 .172-.029.46.057.633.087.2.345.143.518.115.834-.087 1.668.028 2.502 0 .92-.03.633-1.439.604-2.014-.115-1.265.03-10.9.03-14.352 0-1.554-.058-4.746-.145-4.89-.143-.259-.517-.316-.805-.345-.633-.115-.95.057-1.898.057s-1.007.288-1.007 1.295v.863c-.029.69.086 5.522.086 6.299 0 .373-.029.402-.402.402-.95-.029-2.273.087-3.25 0-1.41-.115-1.094 0-1.18-1.294v-.173c0-1.84.23-6.615.144-6.903-.144-.431-.316-.517-.69-.489-.863.058-1.755-.086-2.618-.028-.287.028-.374.115-.46.402-.029.144-.058.288-.058.432 0 .891.058 2.1.087 2.991l-.087 17.056c0 .748.662.662 2.129.662 1.352 0 1.697.316 1.697-1.294 0-1.295-.086-2.934-.058-4.229.03-1.006 0-1.984 0-2.99.03-.375.115-.49.46-.49 1.266-.029 2.647 0 3.912 0 .403 0 .49.058.49.518zm10.527 1.093c-.086-3.28-.057-6.76-.028-10.01 0-1.006-.058-2.1-.058-3.106 0-1.093-.431-1.035-1.007-1.064-.834-.029-1.208-.029-2.042-.029-.546-.029-.776.115-.776.662 0 2.818-.087 10.786-.058 11.936s.144 6.385.086 7.536c-.028.403 0 .805.03 1.208.028.144.114.288.344.288.95-.058 1.841-.058 2.79-.087.346-.028.633-.115.777-.489.029-.201-.058-5.465-.058-6.845zm13.692 5.263c0-.747 0-5.465.028-5.838.029-.087.087-.26.202-.26s.172.058.2.145c1.151 2.243 2.158 4.487 3.194 6.672.143.317.46 1.237.546 1.324.115.172.316.115.49.115l3.163.028c.374 0 .46-.23.374-.546-.23-.863-1.87-3.912-2.244-4.66-.258-.575-1.984-3.911-2.042-4.17-.057-.115.374-.317.432-.403 1.38-1.237 2.617-2.502 2.876-4.43.288-1.898-.144-3.969-1.38-5.493-.95-1.122-2.187-1.783-3.654-1.87-.891-.057-1.754.03-2.646 0-.776-.028-1.323-.028-2.3-.028-.46 0-.749.258-.777.747v.346c-.058 2.214 0 4.429.028 6.615 0 3.336-.057 12.138-.057 13.403 0 .374.057.46.403.46.2 0 .431.03.632.03.806 0 1.295-.03 2.129-.03.633 0 .403-1.035.403-2.157zm0-11.217l.028-2.905c.029-.432-.115-1.294.288-1.61.546-.403 1.668 0 2.157.344 1.438.978 1.323 3.394.547 4.746-.374.633-1.007 1.007-1.726 1.208-.432.115-1.237.26-1.266-.431 0-.46-.028-1.352-.028-1.352zm15.071 5.954c-.086-3.28-.057-6.76-.029-10.01 0-1.006-.057-2.1-.057-3.106 0-1.093-.432-1.035-1.007-1.064-.834-.029-1.208-.029-2.042-.029-.546-.029-.777.115-.777.662 0 2.818-.086 10.786-.057 11.936s.144 6.385.086 7.536c-.029.403 0 .805.029 1.208.029.144.115.288.345.288.95-.058 1.84-.058 2.79-.087.345-.028.633-.115.777-.489.028-.201-.058-5.465-.058-6.845zm8.802-14.295a6.546 6.546 0 00-1.64.287 6.031 6.031 0 00-2.962 2.244c-.633.95-.892 2.07-.978 3.193-.058.862.028 1.754.431 2.53.431.835 1.18 1.554 1.812 2.244.575.604 1.15 1.208 1.783 1.755.576.546 1.237.978 1.812 1.553.835.834 1.15 2.732.547 3.768-.72 1.15-2.416 1.323-3.538.949-.575-.201-1.093-.633-1.582-.978-.287-.201-.633-.288-.834.058-.115.172-.173.373-.23.546-.201.72-.46 1.38-.489 2.157-.029.892 1.668 1.15 2.301 1.295 2.819.661 6.213.143 7.68-2.647a6.72 6.72 0 00.604-1.812c.028-.23.057-.431.057-.661.115-1.841-.633-3.394-1.754-4.775-1.208-1.495-2.733-2.53-4.142-3.825-.863-.806-1.18-2.071-.92-3.222.258-1.236 1.668-1.553 2.732-1.236.316.086.575.23.863.402.172.086.345.202.575.202.403.028.46-.288.547-.604.2-.72.546-1.295.69-1.985.144-.777-.49-.92-1.122-1.122-.748-.201-1.467-.345-2.243-.316zm11.303 18.58c.03.892.03 1.784.058 2.675 0 .403.029.46.431.46h2.589c.546 0 .431-.92.403-1.409l.086-16.107c0-.431.144-.575.719-.575h2.531c.604 0 .46-1.036.46-1.755 0-.632.23-1.725-.46-1.725-.489 0-5.177 0-7.104.028-.95 0-1.726-.028-2.675-.028-.72 0-.69.575-.69 1.84 0 .806-.03 1.611.661 1.611.403 0 2.042 0 2.502.029.288 0 .49.086.547.403 0 .086.029.172.029.258 0 2.071-.144 11.707-.087 14.295zm25.34-13.144c.604 1.783.748 3.71.748 5.609 0 1.582-.288 3.106-.69 4.63-.518 1.813-1.38 3.452-2.934 4.516-1.15.834-2.359 1.38-3.768 1.525-.201 0-.374.028-.575.028-.173 0-.345-.028-.547-.028-1.409-.144-2.617-.69-3.796-1.525-1.525-1.064-2.416-2.703-2.905-4.516-.432-1.524-.69-3.048-.69-4.63 0-1.899.143-3.826.747-5.61 1.064-3.077 3.998-5.263 7.19-5.32 3.193.057 6.127 2.243 7.22 5.32zm-2.79 7.708c.288-1.754.173-3.537-.172-5.292-.345-1.582-1.036-3.135-2.359-4.084a2.7 2.7 0 00-.748-.403c-.374-.173-.776-.23-1.15-.23s-.748.057-1.122.23c-.288.086-.518.23-.748.403-1.352.949-2.042 2.502-2.358 4.084-.345 1.755-.46 3.538-.173 5.292.288 1.582.863 3.71 2.359 4.516.632.345 1.323.575 2.042.604.719-.029 1.438-.259 2.07-.604 1.496-.805 2.072-2.934 2.36-4.516zm9.981 6.414c0-.747 0-5.465.029-5.838.028-.087.086-.26.201-.26s.173.058.201.145c1.15 2.243 2.158 4.487 3.193 6.672.144.317.46 1.237.547 1.324.115.172.316.115.489.115l3.163.028c.374 0 .46-.23.374-.546-.23-.863-1.87-3.912-2.243-4.66-.259-.575-1.985-3.911-2.042-4.17-.058-.115.374-.317.431-.403 1.38-1.237 2.618-2.502 2.876-4.43.288-1.898-.143-3.969-1.38-5.493-.95-1.122-2.186-1.783-3.653-1.87-.892-.057-1.755.03-2.646 0-.777-.028-1.323-.028-2.301-.028-.46 0-.748.258-.777.747v.346c-.057 2.214 0 4.429.029 6.615 0 3.336-.058 12.138-.058 13.403 0 .374.058.46.403.46.201 0 .431.03.633.03.805 0 1.294-.03 2.128-.03.633 0 .403-1.035.403-2.157zm0-11.217l.029-2.905c.028-.432-.115-1.294.287-1.61.547-.403 1.669 0 2.158.344 1.438.978 1.323 3.394.546 4.746-.374.633-1.007 1.007-1.726 1.208-.431.115-1.237.26-1.265-.431 0-.46-.029-1.352-.029-1.352zm13.749 13.145c.086.028.345.028.604.028.575 0 .747-2.07.805-2.502.029-.345.115-.374.403-.432 1.438-.172 2.157-.057 3.595-.028.316 0 .489.144.575.402l.202.662c.172.489.316 1.093.488 1.582.116.345.144.316.49.316.46 0 2.128 0 2.617-.028.661 0 .201-1.352.115-1.582-.259-.806-.316-1.64-.575-2.445-.115-.345-3.394-15.906-3.538-16.769-.201-.518-.029-.546-.49-.546-.977 0-2.013.057-3.02 0-.402 0-.373.115-.43.546-.058.403-1.094 4.976-1.496 6.874-.518 2.388-.978 4.689-1.553 7.047-.202.834-1.582 6.846-1.41 6.875.086.057.23.028.345.028.72 0 1.38 0 2.273-.028zm3.767-6.53h-.604c-.805 0-.834 0-.632-.834.143-.633.92-4.055 1.093-4.89.028-.057.086-.114.115-.114.057 0 .115.057.144.086.115.345.23 1.208.345 1.553.259 1.093.431 2.013.69 3.193.259 1.035.144 1.035-.374 1.035-.259 0-.518-.029-.777-.029zm21.486-14.15c.086.402.029 19.558.029 20.047 0 .863-.316.834-.892.834-.863 0-2.07.144-2.33-.144-.23-.201-4.486-10.47-5.09-11.764-.058-.115-.202-.403-.317-.345-.144.057-.086.259-.086.374-.029 1.007.144 9.693.144 11.074 0 .69-.03.805-.604.805h-1.438c-.374 0-.835-.029-1.209.029-.287 0-.43-.087-.46-.374v-2.273c.058-2.416 0-16.74 0-17.804 0-.92.26-1.093 1.18-1.093.632-.028 1.265-.028 1.898-.028.201 0 .316.028.431.287.777 1.812 4.085 10.125 4.602 11.131.087.202.403 1.007.576 1.093h.028c.115-.115.087-.69.087-.863 0-.431-.23-10.527-.23-10.728 0-.288-.087-.547.057-.748.086-.115.46-.144.604-.172.805-.058 1.755.028 2.56 0 .403 0 .374.287.46.661zm6.616 17.774c.028.892.028 1.784.057 2.675 0 .403.029.46.432.46h2.588c.547 0 .432-.92.403-1.409l.086-16.107c0-.431.144-.575.72-.575h2.53c.604 0 .46-1.036.46-1.755 0-.632.23-1.725-.46-1.725-.489 0-5.177 0-7.104.028-.95 0-1.726-.028-2.675-.028-.719 0-.69.575-.69 1.84 0 .806-.029 1.611.661 1.611.403 0 2.042 0 2.503.029.287 0 .489.086.546.403 0 .086.029.172.029.258 0 2.071-.144 11.707-.086 14.295zm10.21-2.76h-.028c0 .718-.03 1.466 0 2.214.028.92.086 1.84.143 2.761 0 .317.087.403.374.46.604.144 1.18.173 1.784.173 1.553-.058 3.106.058 4.66 0 .632-.029.92.029 1.552-.086.576-.115.777-.432.777-1.295-.058-.546-.029-.776-.029-1.438 0-.949-.661-1.265-1.237-1.237-.402.03-2.33-.028-3.106-.028-1.294.028-1.093.201-1.093-1.15 0-1.094.029-2.503.029-3.625 0-.604.057-.805.633-.805h3.595c.575.086.978-.317.978-.92s.057-.633.057-1.237l-.086-.863c-.057-.49-.23-.662-.719-.662-.316 0-.633.029-.95.058-1.236.086-1.811-.087-3.02 0-.402 0-.46-.058-.488-.432-.115-1.122 0-2.358.115-3.48.029-.46.144-.547.575-.575l4.056-.03c.546-.057.719-.028.69-.574-.058-.835.029-1.697-.058-2.532-.057-.46-.2-.546-.719-.546-.862.029-1.064.029-1.927.086-.863.03-4.314.03-5.148.03-1.208 0-1.295-.087-1.323 1.38-.058 1.15-.03 2.33-.03 3.509 0 2.013-.114 9.233-.057 10.843z" fill="#fffefc"/></svg>